<svg xmlns="http://www.w3.org/2000/svg" viewBox="0 0 1024 1024" width="32" height="32">
  <path d="M49.971 346.317l441.959 255.18c6.553 3.892 13.926 5.735 21.504 5.735 7.372 0 14.745-1.843 21.299-5.734L976.69 346.317c13.312-7.783 21.504-21.504 21.504-37.069s-7.987-29.286-21.504-37.069L534.733 17c-13.107-7.578-29.696-7.578-42.803 0L49.97 272.178c-13.312 7.783-21.299 21.504-21.299 37.069s7.782 29.286 21.3 37.069zM513.23 63.693l425.165 245.555-425.165 245.35-425.165-245.35L513.229 63.693z"/>
  <path d="M954.163 496.64L513.23 751.206 72.499 496.64c-12.288-7.168-27.853-2.867-35.02 9.42-7.169 12.289-2.868 27.854 9.42 35.022l466.535 269.312 466.33-269.312c12.287-7.168 16.383-22.733 9.42-35.021-7.168-12.288-22.938-16.589-35.02-9.421z"/>
  <path d="M954.163 699.392L513.23 953.958 72.499 699.392c-12.288-7.168-27.853-2.867-35.02 9.42-7.169 12.289-2.868 27.854 9.42 35.022l466.535 269.312 466.33-269.312c12.287-7.168 16.383-22.733 9.42-35.021-7.168-12.288-22.938-16.589-35.02-9.421z"/>
</svg>